<svg xmlns="http://www.w3.org/2000/svg" viewBox="0 0 3662.58 1345.04"><defs><style>.cls-1{fill:#ffa3f5;}.cls-2{fill:#fff;}.cls-3{fill:#a3a6ff;}.cls-4{fill:#c9abff;}</style></defs><g id="Capa_2" data-name="Capa 2"><g id="Capa_9" data-name="Capa 9"><path class="cls-1" d="M3658.73,572c-18.05,76.74-98.14,141.42-208.66,175a34.46,34.46,0,0,0-24.1,38.86c2.22,12.77,4.12,26.31,5.67,40.49a34.63,34.63,0,0,1,18.43-13.36c126-38.26,212.51-117,212.51-208A143.48,143.48,0,0,0,3658.73,572ZM3388,1151.9c-1.55,1.78-3.08,3.58-4.47,5.49-29.31,40.45-74.56,66.39-125.35,66.39-33.79,0-65.13-11.49-91-31.09a34.7,34.7,0,0,0-40.1-1.27c-50.46,33.47-124.78,54.62-207.66,54.62-79.49,0-151.1-19.46-201.34-50.57a34.85,34.85,0,0,0-42.76,4.51c-47.07,46.2-167.91,79.08-309.58,79.08-115.06,0-216.39-21.69-275.62-54.59a77.94,77.94,0,0,0-56.58-7.31,242.32,242.32,0,0,1-57.4,6.62c-36.1,0-68.64-7.28-91.55-18.94a78.31,78.31,0,0,0-68.68-.78,212.59,212.59,0,0,1-90.19,19.72c-69.09,0-129.63-32-163.28-80-20.49-29.22-58.06-41.44-91.62-28.87a236.24,236.24,0,0,1-167.09-.92,34.54,34.54,0,0,0-44.53,19.55c-18.72,46.88-66.31,73.34-121.33,73.34-36.59,0-69.34-11.71-92.5-33.35a34.73,34.73,0,0,0-33.6-7.72c-37.68,11.18-84,17.77-134.16,17.77-45.06,0-87.08-5.33-122.47-14.52a78.12,78.12,0,0,0-42.56,1,525.42,525.42,0,0,1-154.18,23c-295.86,0-543.57-180.4-557.77-548.91q-.39,9.15-.53,18.36c-6.08,400.59,250,596.53,558.3,596.53A525.23,525.23,0,0,0,713,1235.89a77.52,77.52,0,0,1,42.21-.83c35.39,9.19,77.39,14.52,122.44,14.52,50.13,0,96.48-6.6,134.16-17.77a34.75,34.75,0,0,1,33.6,7.71c23.16,21.64,55.91,33.35,92.5,33.35,55,0,102.61-26.46,121.33-73.34a34.55,34.55,0,0,1,44.53-19.55,236.24,236.24,0,0,0,167.09.92c33.56-12.57,71.13-.34,91.62,28.87,33.65,48,94.19,80,163.28,80a212.61,212.61,0,0,0,89.73-19.5c22-10.23,47.53-10.44,69.14.56,22.91,11.66,55.45,18.94,91.55,18.94a242.39,242.39,0,0,0,57.4-6.62,78,78,0,0,1,56.58,7.31c59.23,32.9,160.56,54.59,275.62,54.59,141.67,0,262.51-32.87,309.58-79.08a34.86,34.86,0,0,1,42.76-4.51c50.24,31.12,121.85,50.58,201.34,50.58,82.88,0,157.2-21.16,207.66-54.63a34.72,34.72,0,0,1,40.1,1.27c25.83,19.61,57.17,31.09,91,31.09,50.21,0,95-25.36,124.35-65,1.66-2.25,3.37-4.48,5.23-6.58,28.18-31.81,48.6-125.59,48.6-236.33q0-16.79-.62-33C3432.14,1044.6,3413.18,1123.09,3388,1151.9Z"/><path class="cls-2" d="M3431.64,826.28a34.18,34.18,0,0,0-5.67,25.49,731.77,731.77,0,0,1,9.74,97.05q.61-16.19.62-33A831.26,831.26,0,0,0,3431.64,826.28Z"/><path class="cls-2" d="M3486.94,343.8a206.08,206.08,0,0,0,1.91-28c0-159.31-183.68-288.46-410.26-288.46-124.45,0-236,39-311.19,100.48a40.52,40.52,0,0,1-35.78,7.79c-66-17.07-152.77-27.42-247.79-27.42-83.09,0-159.86,7.92-222,21.31a56.19,56.19,0,0,1-34.7-3.5c-110.85-49.2-253-78.76-408-78.76-208.26,0-393.33,53.36-510.46,136a42.94,42.94,0,0,1-28.47,8,32.91,32.91,0,0,1-20.51-9.13C1195.43,120.44,1099.8,81.31,993,81.31A421.3,421.3,0,0,0,883.17,95.69a34.8,34.8,0,0,1-28.41-4.79C768.88,33.31,667.28,0,558.41,0,250.07,0,5.12,267.11.11,596.53q-.37,24.32.53,47.63c14.2,368.51,261.91,548.91,557.77,548.91a525.42,525.42,0,0,0,154.18-23,78.12,78.12,0,0,1,42.56-1c35.39,9.19,77.41,14.52,122.47,14.52,50.13,0,96.48-6.59,134.16-17.77a34.73,34.73,0,0,1,33.6,7.72c23.16,21.64,55.91,33.35,92.5,33.35,55,0,102.61-26.46,121.33-73.34a34.54,34.54,0,0,1,44.53-19.55,236.24,236.24,0,0,0,167.09.92c33.56-12.57,71.13-.35,91.62,28.87,33.65,48,94.19,80,163.28,80a212.59,212.59,0,0,0,90.19-19.72,78.31,78.31,0,0,1,68.68.78c22.91,11.66,55.45,18.94,91.55,18.94a242.32,242.32,0,0,0,57.4-6.62,77.94,77.94,0,0,1,56.58,7.31c59.23,32.9,160.56,54.59,275.62,54.59,141.67,0,262.51-32.88,309.58-79.08a34.85,34.85,0,0,1,42.76-4.51c50.24,31.11,121.85,50.57,201.34,50.57,82.88,0,157.2-21.15,207.66-54.62a34.7,34.7,0,0,1,40.1,1.27c25.83,19.6,57.17,31.09,91,31.09,50.79,0,96-25.94,125.35-66.39,1.39-1.91,2.92-3.71,4.47-5.49,25.21-28.81,44.17-107.3,47.74-203.08a731.77,731.77,0,0,0-9.74-97.05,34.18,34.18,0,0,1,5.67-25.49c-1.55-14.18-3.45-27.72-5.67-40.49a34.46,34.46,0,0,1,24.1-38.86c110.52-33.54,190.61-98.22,208.66-175a143.56,143.56,0,0,0,3.85-33C3662.58,457.2,3592.66,385.28,3486.94,343.8ZM1123.6,599.24c-51.92-131.74-79-150.85-220.48-155.85,131.75-51.93,150.86-79,155.86-220.48,51.92,131.74,79,150.85,220.48,155.85C1147.72,430.69,1128.6,457.72,1123.6,599.24ZM3114.45,129.56c2.7-13,5.34-26.92,8-41.85q4.8,20.1,9.49,37.77c39.3,147.54,79,175.35,248.54,205.49-147.67,35.33-194.67,62.91-224.66,171.49q-24.75-8.61-49.27-17.87c-35.81-90.63-87.24-113.94-227.36-138.85C3045.32,306,3084,276.06,3114.45,129.56Zm283,537.21C3375.72,562.56,3358.12,545,3253.9,523.24c84.66-17.63,112.16-32.56,131.14-93.39,1.83-5.88,3.59-12.19,5.31-19,2.39-9.43,4.71-19.77,7.08-31.15,3,14.4,5.92,27.14,9,38.47a263.78,263.78,0,0,0,8.09,25.31c19,49.57,48.5,63.51,126.43,79.74C3436.74,545,3419.14,562.56,3397.43,666.77Z"/><path class="cls-1" d="M498.67,1066c-70.12-.07-140.57-14.19-200.22-48C158.23,938.52,96.12,786.77,87.8,631.63,84,560.11,92.24,487.77,113.2,419.24c1.34-4.37,2.72-8.72,4.17-13.05a507,507,0,0,1,90.87-163.9Q269,168.7,359.88,124.1t212.4-44.6q102.57,0,179.51,29.55t132.13,71.36Q924.3,211,953,238.89a28.66,28.66,0,0,1,1.08,40.05L854.71,386.3a28.68,28.68,0,0,1-42.19-.17q-21.94-23.86-45.67-45.72Q731.72,308.09,683.78,288T565.59,267.93q-75.84,0-130.45,27.32t-89.2,73a307.81,307.81,0,0,0-50.73,102.58A425.59,425.59,0,0,0,279,587.93q0,71.37,24,131.57t72.48,97q48.5,36.79,121,36.79,89.19,0,147.18-41.25,39.48-28.09,62.42-72.74c10.36-20.16-5.44-43.83-28-41.79q-23.58,2.13-46.12,4.7-26.34,3-49.28,6.2A28.64,28.64,0,0,1,550.2,683l-13.11-125a28.6,28.6,0,0,1,23.12-31.13q56.41-10.6,126.36-16.49,86.38-7.23,165.57-7.24,86.93,0,139.28,8.46a28.64,28.64,0,0,1,24,29l-3.05,125.08a28.63,28.63,0,0,1-32.33,27.71q-5.34-.7-11.21-1.34A28.67,28.67,0,0,0,937.1,721q.12,9.7.34,19.73.55,26.76.56,54.63,0,76.93-2.23,151.64-1.6,53.25-3.19,91.22a28.64,28.64,0,0,1-29.29,27.43l-132.18-3.09a28.64,28.64,0,0,1-27.86-31.22q.6-6.55,1.3-14.1l.05-.6c2.18-23.64-23.7-15.09-43.78-2.44A338.25,338.25,0,0,1,652,1039.4C604.27,1059.56,551.56,1066.05,498.67,1066Z"/><path class="cls-1" d="M1122.1,1135.81a52.78,52.78,0,0,1-52.78-51.14q-.81-26.78-1.21-55.28-.81-56.63-.8-113.64,0-74.7,1.6-145.37.93-41,2.14-77.74a52.78,52.78,0,0,1,52.46-51l31.34-.18a52.79,52.79,0,0,1,53.07,54.6q-.59,17-.87,36.22-.81,54.22-.8,113.65,0,58.64.8,115.65t2,103.2q.23,8.82.44,16.88a52.78,52.78,0,0,1-52.77,54.2Z"/><path class="cls-1" d="M1358.3,990.89a27.87,27.87,0,0,1-27.88-27.53q-.4-33.09-.41-67.22V636.58a27.88,27.88,0,0,0-30.87-27.72q-18.3,2-35.74,4.69-15.53,2.41-30,5.42a27.85,27.85,0,0,1-33.24-23.68l-10-75.85A27.86,27.86,0,0,1,1213,488.37q19.57-3.48,42.14-6.4,27.87-3.59,57.26-5.89a27.87,27.87,0,0,0,25.44-23.66c5.44-36.54,14.65-72.71,29.34-106.66,16.47-38.06,40.64-77.83,75.23-102C1494,207.77,1570,214,1627,232.71c9.06,3,19,6.08,26.63,12.25,9.81,7.92,10.29,20,9.19,31.51-1.7,17.91-7.32,33.76-14,50.24-5.57,13.66-13.54,28.84-29.07,32.57-11.5,2.76-24,.65-35.37-1.67a221.19,221.19,0,0,0-22.49-3.46c-6.85-.67-14-1.48-20.83-.06-11.13,2.33-20.65,9.26-28.28,17.45a117,117,0,0,0-16.36,23.13q-9.49,17.15-14.62,43.19a27.91,27.91,0,0,0,26.3,33.36q28,1,54.11,2.89,22.86,1.67,42.38,3.71a27.85,27.85,0,0,1,24.77,30.55l-7.52,73.79a27.86,27.86,0,0,1-31,24.85q-18.26-2.22-39.36-3.81-25.78-1.94-53.24-2.58a27.86,27.86,0,0,0-28.44,26.94q-.93,28-1.48,55.09-.84,40.14-.83,79.85,0,53,1.24,108.82,1,43.15,2.16,91a27.87,27.87,0,0,1-27.87,28.58Z"/><path class="cls-1" d="M1727.8,1135.81q-50.94,0-84-17.91a139.09,139.09,0,0,1-52.52-49q-19.51-31-28.66-69.63a488.2,488.2,0,0,1-11.93-80.39q-2.81-41.77-2.79-80.78,0-44.56,2.79-90.73,2.41-40.18,5.15-87a15.82,15.82,0,0,1,14.84-14.87L1683,638.76a15.82,15.82,0,0,1,16.61,18q-1.87,13.1-4.42,31-4.79,33.43-8.76,76.41t-4,89.93q0,77.2,13.53,114.21t40.59,37q54.12,0,79.59-78.79t25.47-249.1V656.23a15.81,15.81,0,0,1,15.44-15.81l52.2-1.23,63.33-1.23a15.82,15.82,0,0,1,16,18q-9.16,64.22-14,119.27-5.57,62.88-7.16,105.45t-1.59,56.91q0,36.61,6.37,52.12t22.28,15.52a55.59,55.59,0,0,0,17.51-3.18l.19-.06a15.85,15.85,0,0,1,21,15.57l-3.95,97.1a15.85,15.85,0,0,1-13.76,15,308.49,308.49,0,0,1-39.3,2.86q-38.2,0-62.48-14.32a109.42,109.42,0,0,1-28.82-24.39,15.79,15.79,0,0,0-22.42-1.76,175.54,175.54,0,0,1-48.24,28.93Q1777.93,1135.8,1727.8,1135.81Z"/><path class="cls-3" d="M2084.61,993.9a30.25,30.25,0,0,1-30.91-28.35q-2.09-33.43-3.55-77.7Q2048,822.8,2048,746.44q0-67.68,1.3-139.68t4.34-141.85c2-46.55,4.34-104.77,6.94-145.55q2.71-42.56,6.07-77.77c1.55-16.35,15.83-22.31,32.22-21.18h89.66a30.25,30.25,0,0,1,28,33.9c-6.1,48.67-10.93,112.38-14.49,162q-4.47,62.22-6.69,125.86c-.85,24.32,25.95,39.65,46.48,26.58Q2272,549.51,2307,529.11q55.41-32.37,130.32-72.07a30.26,30.26,0,0,1,40.13,11.21l47.42,79.2a30.28,30.28,0,0,1-16.07,44.15q-72.16,25.08-130.23,55.5c-19.94,10.45-39.56,21.52-58.63,33.48a584.86,584.86,0,0,0-48.43,33.65c-6.41,5-13.08,9.78-19.35,14.93-1.48,1.21-6,4.33-5.4,6.59,1.23,4.7,8.5,7.8,12.29,10,5.31,3.08,10.85,5.66,16.28,8.5q38.16,20,78.95,39t91.09,38.61q37.65,14.6,83.57,30.43a30.27,30.27,0,0,1,17.55,41.4L2512,977.58a30.21,30.21,0,0,1-36.6,16.06A1262.72,1262.72,0,0,1,2343,942.51q-51.3-23.1-96.37-46.59c-20.94-10.91-45.73,5.4-44.13,29,.13,1.83.25,3.66.38,5.5q1,14.6,2,29.2a30.28,30.28,0,0,1-29.51,32.25Z"/><path class="cls-3" d="M2794.39,1066.17q-62.05,0-112.54-31.85T2602,948.25q-29.39-54.18-29.38-121.23,0-62.88,23.17-113.78a264.15,264.15,0,0,1,63.3-87.3,285.47,285.47,0,0,1,91.44-55.86,301,301,0,0,1,107.58-19.45,330.49,330.49,0,0,1,92.69,13.24,35.46,35.46,0,0,1,40.81-28.81l56.62,9.6a47.07,47.07,0,0,1,38.39,55l-.12.62q-5.79,31.47-9.51,70.34t-6.21,77.79q-2.47,38.91-2.48,70.34a331.73,331.73,0,0,0,3.72,50.06q3.74,24.42,16.14,39.72c5.07,6.25,12.41,10.39,20.13,12.43,10.63,2.81,27.11-.87,27.77,14.83.54,12.7-2.62,25.52-4.25,38a189.22,189.22,0,0,1-6,30.41c-7.81,25.92-28.41,52.41-55.52,59.4-43.42,11.2-69.63-25.48-93.41-55a10.14,10.14,0,0,0-15.08-.89q-32.61,32.68-73,44.82A326.67,326.67,0,0,1,2794.39,1066.17Zm-86.06-222.6q4.14,39.72,32.69,63.31t72.41,23.58q42.2,0,70.33-22.75a146.46,146.46,0,0,0,23.33-23.94c13.12-16.85,19.25-37.93,22-58.84,3.35-25.88,4.18-54.7-.52-80.46-6-33.05-26.62-55.75-60.49-60-29.12-3.68-59.8,4.95-85.65,18q-35.17,17.81-55,49.24-20.91,33.12-19.8,77.23l0,3.55A49.22,49.22,0,0,0,2708.33,843.57Z"/><path class="cls-4" d="M2117.55,1105.24l-1.82-17.71a1.43,1.43,0,0,1,1.39-1.57q6.33-.09,16.41-1,10.62-.92,22.75-2.25a1.43,1.43,0,0,0,1.22-1.8q-2.85-10.18-5.08-20.36a1.43,1.43,0,0,0-1.57-1.11q-11.14,1.39-20.95,3-9.33,1.48-15.82,2.91a1.42,1.42,0,0,1-1.7-1.11l-3.4-17a1.42,1.42,0,0,1,1.07-1.67q6.75-1.55,16.22-3,9.78-1.54,20.61-2.92a1.43,1.43,0,0,0,1.23-1.62q-.66-4.65-1.11-9.06t-.71-8.34a1.41,1.41,0,0,1,1.28-1.5l20.16-2v.66c0,2.73.15,5.73.46,9q.41,4.29,1.16,9a1.43,1.43,0,0,0,1.56,1.18q12.23-1.21,23.49-1.91,11.88-.72,20.46-.72h1.78a1.42,1.42,0,0,1,1.42,1.39l.34,17.09a1.42,1.42,0,0,1-1.42,1.45h0q-7.67,0-19.15.73-10.74.67-22.65,1.88a1.43,1.43,0,0,0-1.25,1.76q2.49,10,5.59,20.22a1.44,1.44,0,0,0,1.56,1q10.68-1.38,20.05-2.89,8.74-1.39,14.6-2.69a1.42,1.42,0,0,1,1.71,1.21l2.15,16.84a1.42,1.42,0,0,1-1.09,1.57q-6.27,1.43-14.07,2.75t-16.2,2.63a1.43,1.43,0,0,0-1.12,1.93q2.86,7.35,5.77,13.59a92,92,0,0,0,5.36,10,1.41,1.41,0,0,1-.64,2l-17.78,7.69a1.42,1.42,0,0,1-1.78-.56,118.83,118.83,0,0,1-6.68-13.08q-3.56-8-6.82-17.39a1.44,1.44,0,0,0-1.52-1q-13.36,1.62-25.33,2.7-11.4,1-18.66,1.33A1.43,1.43,0,0,1,2117.55,1105.24Zm89.37-74.81a1.41,1.41,0,0,1-2-.33c-.5-.74-1.09-1.68-1.78-2.82q-1.71-2.83-3.23-5.94a36.93,36.93,0,0,1-1.63-3.75,1.43,1.43,0,0,1,.81-1.82l5.78-2.29a1.43,1.43,0,0,1,1.83.75,56.78,56.78,0,0,0,2.52,5.13,44.43,44.43,0,0,0,3.24,5.17,1.42,1.42,0,0,1-.29,2Zm14.83-2.14a1.41,1.41,0,0,1-2,0c-.62-.61-1.36-1.41-2.21-2.39q-2-2.39-3.89-5a32.07,32.07,0,0,1-2.1-3.35,1.42,1.42,0,0,1,.47-1.83l5.15-3.49a1.42,1.42,0,0,1,2,.4,53.72,53.72,0,0,0,3.27,4.51,41.27,41.27,0,0,0,4.1,4.49,1.42,1.42,0,0,1,0,2Z"/><path class="cls-4" d="M2293.5,1134.35l-16.71-14.5a1.42,1.42,0,0,1,.19-2.28,144.22,144.22,0,0,0,21.73-16.54,137,137,0,0,0,16.77-18.49,92.94,92.94,0,0,0,10.1-16.57q3.36-7.46,3.36-11.82c0-3.43-1.3-5.69-3.89-6.8a22.35,22.35,0,0,0-8.78-1.65q-5.82,0-15.05.86a186.21,186.21,0,0,0-22.12,3.7,259.48,259.48,0,0,0-28.17,8.18,1.42,1.42,0,0,1-1.81-.87l-6.84-19.35a1.43,1.43,0,0,1,.88-1.83q11.49-3.93,23.33-6.73a242.32,242.32,0,0,1,24.69-4.55,175.62,175.62,0,0,1,22.71-1.59,108.57,108.57,0,0,1,13.54.86,45.39,45.39,0,0,1,12.54,3.37,20.93,20.93,0,0,1,9.18,7.59q3.42,5.09,3.43,13.4,0,6.35-2.84,16.11a101.88,101.88,0,0,1-9.51,21.52,142.2,142.2,0,0,1-17.89,24.3,165.37,165.37,0,0,1-27.07,23.77A1.43,1.43,0,0,1,2293.5,1134.35Z"/><path class="cls-4" d="M2404.25,1128.69l-18.23-4.24a1.43,1.43,0,0,1-1.08-1.67q2.46-11.77,6.46-26.37,3.87-14.17,8.41-28.67a1.43,1.43,0,0,0-1.78-1.8q-5,1.62-9.93,3.4-5.52,2-10.72,4a1.42,1.42,0,0,1-1.82-.8l-6.75-16.83a1.42,1.42,0,0,1,.75-1.84q8.93-3.9,18.54-7.1a200.29,200.29,0,0,1,19.84-5.51,1.43,1.43,0,0,0,1-.9q2.51-7,5.08-13.46,2.46-6.18,4.75-11.53a1.42,1.42,0,0,1,1.62-.82l19.62,4.35a1.43,1.43,0,0,1,1,2q-1.45,2.87-3,6.43-1.61,3.74-3.38,8.08a1.43,1.43,0,0,0,1.4,2c1.87-.09,3.72-.14,5.54-.14q21.79,0,32,7.86t10.23,26.74a91.68,91.68,0,0,1-1.58,16.57,161.69,161.69,0,0,1-4.09,17q-2.52,8.38-5.42,15.58a120.18,120.18,0,0,1-5,11,1.42,1.42,0,0,1-1.87.61l-17.45-8.38a1.43,1.43,0,0,1-.6-2,86.4,86.4,0,0,0,6.6-14,113.93,113.93,0,0,0,4.49-15.32q1.59-7.4,2.24-13.13a83.2,83.2,0,0,0,.66-8.79q0-6.06-3.16-8.84a15.81,15.81,0,0,0-8.06-3.57,64.48,64.48,0,0,0-10.17-.79q-3.43,0-7.06.33c-2.14.2-4.33.44-6.57.74a1.44,1.44,0,0,0-1.17,1q-4.08,12.15-8,24.71-4,13-7.13,24.62-2.85,10.63-4.52,18.4A1.42,1.42,0,0,1,2404.25,1128.69Z"/><path class="cls-4" d="M2519,1099.74l-13.66-12.51a1.43,1.43,0,0,1-.19-1.89,108.88,108.88,0,0,1,8.82-10.26q6-6.27,13.8-13.14t16.57-13.73q8.79-6.86,18-13t18.08-11a108.84,108.84,0,0,1,15.73-7.15,1.44,1.44,0,0,1,1.55.42l12.29,14.23a1.42,1.42,0,0,1-.57,2.26,141.17,141.17,0,0,0-15.33,7.07q-8.22,4.39-16.13,9.5a1.42,1.42,0,0,0-.62,1.5q1.17,5.49,2,12.77.91,7.92,1.32,16.9t.4,18.09q0,9.24-.4,17.89-.36,7.82-1,14.18a1.41,1.41,0,0,1-1.49,1.26l-19.89-1a1.42,1.42,0,0,1-1.35-1.53q.44-5.08.73-11.88.33-7.79.33-16.37,0-9.37-.46-18.82-.39-7.93-1.3-14.62a1.43,1.43,0,0,0-2.31-.92q-10.2,8.21-18.71,16.47a186.84,186.84,0,0,0-14.16,15.13A1.43,1.43,0,0,1,2519,1099.74Z"/><path class="cls-3" d="M3237.56,1133.29a52.77,52.77,0,0,1-52.77-51.13q-.81-26.78-1.21-55.28-.81-56.63-.8-113.64,0-74.7,1.6-145.37.93-41,2.14-77.74a52.78,52.78,0,0,1,52.46-51l31.33-.19a52.8,52.8,0,0,1,53.08,54.61q-.58,17-.87,36.22-.81,54.21-.8,113.64,0,58.64.8,115.65t2,103.21q.22,8.82.44,16.87a52.78,52.78,0,0,1-52.78,54.2Z"/><path class="cls-4" d="M3334.79,387.13q28,11.36,55.56,23.74c-1.72,6.79-3.48,13.1-5.31,19q-18.67-8.46-37.55-16.42-27.82-11.69-56.08-22.38a11.16,11.16,0,0,1-5.86-4.5,9.79,9.79,0,0,1,3.52-13.41c2-1.17,5.31-1.84,7.55-1Q3315.77,379.44,3334.79,387.13Z"/><path class="cls-4" d="M3614.62,596c-5.61,6.27-13.75,10.07-21.63,12.54-10.26,3.21-21.26,4.34-32,4.85a313.66,313.66,0,0,1-41.69-1.2c-18.65-1.59-37.22-4.18-55.68-7.21-2.47-.41-4.56-2.49-5.86-4.51a9.79,9.79,0,0,1,3.52-13.41c2.43-1.42,4.87-1.43,7.55-1q11.74,1.93,23.55,3.55c7,.92,13.93,1.74,20.92,2.42,20,2,40.42,3.19,60.4.67h.05a81.87,81.87,0,0,0,17.92-4.44l.11,0a39.13,39.13,0,0,0,6.37-3.59,25.13,25.13,0,0,0,2.84-2.81s0,0,0,0a22.66,22.66,0,0,0,1.42-2.43,0,0,0,0,1,0,0,18.44,18.44,0,0,0,.58-2.09,18.85,18.85,0,0,0,0-2.71,30.15,30.15,0,0,0-1.45-5,58.67,58.67,0,0,0-6.26-10.35l-.14-.18q-2.33-3-4.88-5.75a207.38,207.38,0,0,0-26.77-24.09c-6-4.64-12.25-9.08-18.56-13.38-29.79-20.33-61.5-37.86-93.64-54.18-1.89-.78-3.73-1.9-5.45-2.76l-5.88-2.93q-6.27-3.11-12.56-6.15-6.46-3.12-12.94-6.2a263.78,263.78,0,0,1-8.09-25.31q26.83,12.35,53.24,25.62c2.08.83,4.08,2.07,6,3l6.65,3.43c30.66,16,60.92,33.1,89.17,53.07a331,331,0,0,1,31.83,25.14A133.18,133.18,0,0,1,3614,551.67c4.65,6.83,8,14.54,8.66,22.85C3623.26,582.5,3619.85,590.15,3614.62,596Z"/><path class="cls-4" d="M2741,262.33l.12-.19c.14-.17.28-.35.43-.51s.32-.35.49-.52C2741.9,261.26,2741.6,261.62,2741,262.33Z"/><path class="cls-4" d="M2746.33,287.46c-.16-.19-.27-.34-.35-.44Z"/><path class="cls-4" d="M3272.41,550.59c-1.31,5.74-8,9.26-13.52,7.67q-11.51-3.32-23-6.75-43.08-12.93-85.55-27.71-17.18-6-34.22-12.26-34-12.5-67.49-26.22A1945.48,1945.48,0,0,1,2868,400.51c-28.13-15.06-55.91-31-81.89-49.54-12-8.61-23.63-17.81-34.83-27.48-9.49-8.18-18.54-17-25.61-27.38s-11.83-24.34-7.43-36.89a39.1,39.1,0,0,1,2-4.63,35.43,35.43,0,0,1,8.57-11.18,56.5,56.5,0,0,1,13-8.31h0c8.61-4.06,18.14-6.29,27.53-7.63,21.73-3.12,43.74-2.67,65.57-.93,30.74,2.46,61.28,7.35,91.53,13.21,6,1.17,8.91,8.09,7.68,13.52-1.39,6.1-7.9,8.77-13.52,7.68q-12-2.32-24.06-4.4-11.24-1.94-22.53-3.58c-2.1-.31-4.19-.6-6.29-.89l-.71-.1-.16,0h-.13l-.19,0-.11,0h-.4l-.66-.09q-5.13-.66-10.28-1.26c-12.37-1.42-24.79-2.51-37.23-3a298.92,298.92,0,0,0-31.54.17q-3.37.23-6.72.54l-3.21.34-1.4.22.46-.1c-3.7.72-7.43,1.17-11.12,2a89.56,89.56,0,0,0-9.74,2.83c-.74.27-1.48.56-2.21.85l-.1,0c-1.18.54-2.34,1.12-3.48,1.75a40.59,40.59,0,0,0-3.67,2.26l-.33.24-.1.07-.31.26a30.14,30.14,0,0,0-2.24,2.14l0,0a5.7,5.7,0,0,0-.9,1l0,.07-.45.55.33-.36a22.33,22.33,0,0,0-1.46,2.5c-.23.69-.5,1.37-.68,2.09a3.53,3.53,0,0,0-.08.44c.18-.28.3.13-.22,1.21a.17.17,0,0,1,0-.07c.09-.33.14-.76.21-1.12a2.41,2.41,0,0,0-.21,1v.14a.88.88,0,0,1-.05.15.3.3,0,0,0,0-.08,30.63,30.63,0,0,0,.06,3.18c.14.6.25,1.22.4,1.82.33,1.26.76,2.47,1.18,3.69,0,0,0,0,0,.05l.21.45c.25.52.51,1,.77,1.53.59,1.14,1.23,2.25,1.89,3.34s1.55,2.4,2.37,3.57c.11.15.26.41.44.69a3,3,0,0,0,.84,1.06l-.37-.47c.16.18.31.37.45.55a128.2,128.2,0,0,0,12,12.76c3.75,3.53,7.65,6.9,11.57,10.23,2.75,2.33,5.5,4.66,8.3,6.93l4.51,3.61c.51.39,1,.78,1.51,1.19h0l.05,0h0l.08.06.05,0,.07.05.11.09,0,0,.4.3q18.87,14.34,39,26.88c26.34,16.51,53.82,31.17,81.44,45.39q43.18,22.23,87.49,42.19,11,5,22,9.78,5.52,2.42,11.06,4.79l5.54,2.37,2.78,1.18,1.08.45h0l.17.07,0,0,.27.11h.05l.07,0,.06,0h0l.06,0q21.86,9.21,43.92,17.88,12.93,5.08,25.92,10,24.51,9.26,49.27,17.87,54,18.81,108.92,34.61A11.2,11.2,0,0,1,3272.41,550.59Z"/><path class="cls-4" d="M3380.47,331c-147.67,35.33-194.67,62.91-224.66,171.49q-24.75-8.61-49.27-17.87c-35.81-90.63-87.24-113.94-227.36-138.85C3045.32,306,3084,276.06,3114.45,129.56c2.7-13,5.34-26.92,8-41.85q4.8,20.1,9.49,37.77C3171.23,273,3210.91,300.83,3380.47,331Z"/><path class="cls-4" d="M3155.81,502.46q-2.82,10.19-5.45,21.34c-4.58,19.32-8.84,40.93-13.16,65.2-7.09-29.65-13.87-55.25-21.06-77.46-3.1-9.6-6.29-18.56-9.6-27Q3131.05,493.85,3155.81,502.46Z"/><path class="cls-4" d="M3541,523.24c-104.22,21.72-121.82,39.32-143.53,143.53C3375.72,562.56,3358.12,545,3253.9,523.24c84.66-17.63,112.16-32.56,131.14-93.39,1.83-5.88,3.59-12.19,5.31-19,2.39-9.43,4.71-19.77,7.08-31.15,3,14.4,5.92,27.14,9,38.47a263.78,263.78,0,0,0,8.09,25.31C3433.53,493.07,3463,507,3541,523.24Z"/><path class="cls-4" d="M1279.46,378.76c-131.74,51.93-150.86,79-155.86,220.48-51.92-131.74-79-150.85-220.48-155.85,131.75-51.93,150.86-79,155.86-220.48C1110.9,354.65,1137.94,373.76,1279.46,378.76Z"/></g></g></svg>